<svg width="267" height="267" viewBox="0 0 267 267" fill="none" xmlns="http://www.w3.org/2000/svg">
<path fill-rule="evenodd" clip-rule="evenodd" d="M133.5 259C202.812 259 259 202.812 259 133.5C259 64.1883 202.812 8 133.5 8C64.1883 8 8 64.1883 8 133.5C8 202.812 64.1883 259 133.5 259ZM133.5 267C207.23 267 267 207.23 267 133.5C267 59.77 207.23 0 133.5 0C59.77 0 0 59.77 0 133.5C0 207.23 59.77 267 133.5 267Z" fill="#58C3FF"/>
<path d="M139 189H127.2L86.4 92.4H98L133.2 176.8L168 92.4H179.8L139 189Z" fill="#58C3FF"/>
</svg>
